+ filenameToUse=/home/horvathandras/vatic/vatic/public/videouploads/DJI_0106_ragas_Vaskut_20180630_napos_napraforgo_T4.avi
+ filenameNoDot=DJI_0106_ragas_Vaskut_20180630_napos_napraforgo_T4
+ FullUploadPath=/home/horvathandras/vatic/vatic/public/videouploads/DJI_0106_ragas_Vaskut_20180630_napos_napraforgo_T4.avi
+ VideoDataDir=/home/horvathandras/vatic/vatic/videos
+ AvailableObjectTypes='PozitívROI NegatívROI Túrás ~Friss ~1-2Hetes ~Régebbi ~Egyéb1 ~Egyéb2 ~Egyéb3 Rágás ~Friss ~1-2Hetes ~Régebbi ~Egyéb1 ~Egyéb2 ~Egyéb3 Törés ~Friss ~1-2Hetes ~Régebbi ~Egyéb1 ~Egyéb2 ~Egyéb3 Taposás ~Friss ~1-2Hetes ~Régebbi ~Egyéb1 ~Egyéb2 ~Egyéb3 EgészségesNövény Egyéb1 Egyéb2 Egyéb3 Egyéb4 Egyéb5 Bizonytalan Művelőút Gktaposás Vetőhiba Széldöntés Jégkár Belvíz Aszály Erózió EgyszikűGyom KétszikűGyom EgyébNövvédelmiPR'
++ dirname /home/horvathandras/vatic/vatic/vatic_publisher.sh
+ cd /home/horvathandras/vatic/vatic
+ touch /home/horvathandras/vatic/vatic/public/videouploads/DJI_0106_ragas_Vaskut_20180630_napos_napraforgo_T4.avi
+ chmod 744 /home/horvathandras/vatic/vatic/public/videouploads/DJI_0106_ragas_Vaskut_20180630_napos_napraforgo_T4.avi
+ mkdir /home/horvathandras/vatic/vatic/videos/DJI_0106_ragas_Vaskut_20180630_napos_napraforgo_T4
+ turkic extract /home/horvathandras/vatic/vatic/public/videouploads/DJI_0106_ragas_Vaskut_20180630_napos_napraforgo_T4.avi /home/horvathandras/vatic/vatic/videos/DJI_0106_ragas_Vaskut_20180630_napos_napraforgo_T4 --no-resize
ffmpeg version 2.8.14-0ubuntu0.16.04.1 Copyright (c) 2000-2018 the FFmpeg developers
  built with gcc 5.4.0 (Ubuntu 5.4.0-6ubuntu1~16.04.9) 20160609
  configuration: --prefix=/usr --extra-version=0ubuntu0.16.04.1 --build-suffix=-ffmpeg --toolchain=hardened --libdir=/usr/lib/x86_64-linux-gnu --incdir=/usr/include/x86_64-linux-gnu --cc=cc --cxx=g++ --enable-gpl --enable-shared --disable-stripping --disable-decoder=libopenjpeg --disable-decoder=libschroedinger --enable-avresample --enable-avisynth --enable-gnutls --enable-ladspa --enable-libass --enable-libbluray --enable-libbs2b --enable-libcaca --enable-libcdio --enable-libflite --enable-libfontconfig --enable-libfreetype --enable-libfribidi --enable-libgme --enable-libgsm --enable-libmodplug --enable-libmp3lame --enable-libopenjpeg --enable-libopus --enable-libpulse --enable-librtmp --enable-libschroedinger --enable-libshine --enable-libsnappy --enable-libsoxr --enable-libspeex --enable-libssh --enable-libtheora --enable-libtwolame --enable-libvorbis --enable-libvpx --enable-libwavpack --enable-libwebp --enable-libx265 --enable-libxvid --enable-libzvbi --enable-openal --enable-opengl --enable-x11grab --enable-libdc1394 --enable-libiec61883 --enable-libzmq --enable-frei0r --enable-libx264 --enable-libopencv
  libavutil      54. 31.100 / 54. 31.100
  libavcodec     56. 60.100 / 56. 60.100
  libavformat    56. 40.101 / 56. 40.101
  libavdevice    56.  4.100 / 56.  4.100
  libavfilter     5. 40.101 /  5. 40.101
  libavresample   2.  1.  0 /  2.  1.  0
  libswscale      3.  1.101 /  3.  1.101
  libswresample   1.  2.101 /  1.  2.101
  libpostproc    53.  3.100 / 53.  3.100
Input #0, mov,mp4,m4a,3gp,3g2,mj2, from '/home/horvathandras/vatic/vatic/public/videouploads/DJI_0106_ragas_Vaskut_20180630_napos_napraforgo_T4.avi':
  Metadata:
    major_brand     : qt  
    minor_version   : 537986816
    compatible_brands: qt  
    creation_time   : 2018-06-30 07:35:23
    location        : +46.091558+18.981056+30.200
    location-{    : +46.091558+18.981056+30.200
    comment         : DE=None, Mode=P, DSW=0001
  Duration: 00:00:11.14, start: 0.000000, bitrate: 101760 kb/s
    Stream #0:0(eng): Video: h264 (High) (avc1 / 0x31637661), yuv420p(tv, bt709), 4096x2160 [SAR 1:1 DAR 256:135], 101750 kb/s, 50 fps, 50 tbr, 50k tbn, 100 tbc (default)
    Metadata:
      creation_time   : 2018-06-30 07:35:23
      handler_name    : DJI.AVC
      encoder         : AVC encoder
    Stream #0:1(eng): Data: none (priv / 0x76697270), 4 kb/s
    Metadata:
      creation_time   : 2018-06-30 07:35:23
      handler_name    : DJI.Meta
Please use -b:a or -b:v, -b is ambiguous
[swscaler @ 0x26babe0] deprecated pixel format used, make sure you did set range correctly
Output #0, image2, to '/tmp/pyvision-ffmpeg-934069279/%d.jpg':
  Metadata:
    major_brand     : qt  
    minor_version   : 537986816
    compatible_brands: qt  
    comment         : DE=None, Mode=P, DSW=0001
    location        : +46.091558+18.981056+30.200
    location-{    : +46.091558+18.981056+30.200
    encoder         : Lavf56.40.101
    Stream #0:0(eng): Video: mjpeg, yuvj420p(pc), 4096x2160 [SAR 1:1 DAR 256:135], q=2-31, 10000 kb/s, 50 fps, 50 tbn, 50 tbc (default)
    Metadata:
      creation_time   : 2018-06-30 07:35:23
      handler_name    : DJI.AVC
      encoder         : Lavc56.60.100 mjpeg
Stream mapping:
  Stream #0:0 -> #0:0 (h264 (native) -> mjpeg (native))
Press [q] to stop, [?] for help
frame=    1 fps=0.0 q=20.2 size=N/A time=00:00:00.02 bitrate=N/A    frame=    5 fps=4.1 q=24.8 size=N/A time=00:00:00.10 bitrate=N/A    frame=   10 fps=5.5 q=24.8 size=N/A time=00:00:00.20 bitrate=N/A    frame=   15 fps=6.1 q=24.8 size=N/A time=00:00:00.30 bitrate=N/A    frame=   20 fps=6.6 q=24.8 size=N/A time=00:00:00.40 bitrate=N/A    frame=   25 fps=6.8 q=24.8 size=N/A time=00:00:00.50 bitrate=N/A    frame=   30 fps=7.0 q=24.8 size=N/A time=00:00:00.60 bitrate=N/A    frame=   35 fps=7.2 q=24.8 size=N/A time=00:00:00.70 bitrate=N/A    frame=   40 fps=7.3 q=24.8 size=N/A time=00:00:00.80 bitrate=N/A    frame=   45 fps=7.4 q=24.8 size=N/A time=00:00:00.90 bitrate=N/A    frame=   50 fps=7.4 q=24.8 size=N/A time=00:00:01.00 bitrate=N/A    frame=   55 fps=7.5 q=24.8 size=N/A time=00:00:01.10 bitrate=N/A    frame=   60 fps=7.6 q=24.8 size=N/A time=00:00:01.20 bitrate=N/A    frame=   65 fps=7.6 q=24.8 size=N/A time=00:00:01.30 bitrate=N/A    frame=   69 fps=7.6 q=24.8 size=N/A time=00:00:01.38 bitrate=N/A    frame=   74 fps=7.7 q=24.8 size=N/A time=00:00:01.48 bitrate=N/A    frame=   79 fps=7.7 q=24.8 size=N/A time=00:00:01.58 bitrate=N/A    frame=   83 fps=7.7 q=24.8 size=N/A time=00:00:01.66 bitrate=N/A    frame=   88 fps=7.7 q=24.8 size=N/A time=00:00:01.76 bitrate=N/A    frame=   93 fps=7.7 q=24.8 size=N/A time=00:00:01.86 bitrate=N/A    frame=   98 fps=7.8 q=24.8 size=N/A time=00:00:01.96 bitrate=N/A    frame=  103 fps=7.8 q=24.8 size=N/A time=00:00:02.06 bitrate=N/A    frame=  108 fps=7.8 q=24.8 size=N/A time=00:00:02.16 bitrate=N/A    frame=  113 fps=7.8 q=24.8 size=N/A time=00:00:02.26 bitrate=N/A    frame=  118 fps=7.8 q=24.8 size=N/A time=00:00:02.36 bitrate=N/A    frame=  123 fps=7.8 q=24.8 size=N/A time=00:00:02.46 bitrate=N/A    frame=  128 fps=7.9 q=24.8 size=N/A time=00:00:02.56 bitrate=N/A    frame=  133 fps=7.9 q=24.8 size=N/A time=00:00:02.66 bitrate=N/A    frame=  138 fps=7.9 q=24.8 size=N/A time=00:00:02.76 bitrate=N/A    frame=  143 fps=7.9 q=24.8 size=N/A time=00:00:02.86 bitrate=N/A    frame=  148 fps=7.9 q=24.8 size=N/A time=00:00:02.96 bitrate=N/A    frame=  153 fps=7.9 q=24.8 size=N/A time=00:00:03.06 bitrate=N/A    frame=  158 fps=7.9 q=24.8 size=N/A time=00:00:03.16 bitrate=N/A    frame=  163 fps=7.9 q=24.8 size=N/A time=00:00:03.26 bitrate=N/A    frame=  168 fps=7.9 q=24.8 size=N/A time=00:00:03.36 bitrate=N/A    frame=  173 fps=7.9 q=24.8 size=N/A time=00:00:03.46 bitrate=N/A    frame=  178 fps=8.0 q=24.8 size=N/A time=00:00:03.56 bitrate=N/A    frame=  183 fps=8.0 q=24.8 size=N/A time=00:00:03.66 bitrate=N/A    frame=  188 fps=8.0 q=24.8 size=N/A time=00:00:03.76 bitrate=N/A    frame=  193 fps=8.0 q=24.8 size=N/A time=00:00:03.86 bitrate=N/A    frame=  198 fps=8.0 q=24.8 size=N/A time=00:00:03.96 bitrate=N/A    frame=  203 fps=8.0 q=24.8 size=N/A time=00:00:04.06 bitrate=N/A    frame=  208 fps=8.0 q=24.8 size=N/A time=00:00:04.16 bitrate=N/A    frame=  213 fps=8.0 q=24.8 size=N/A time=00:00:04.26 bitrate=N/A    frame=  218 fps=8.0 q=24.8 size=N/A time=00:00:04.36 bitrate=N/A    frame=  223 fps=8.0 q=24.8 size=N/A time=00:00:04.46 bitrate=N/A    frame=  228 fps=8.0 q=24.8 size=N/A time=00:00:04.56 bitrate=N/A    frame=  233 fps=8.0 q=24.8 size=N/A time=00:00:04.66 bitrate=N/A    frame=  238 fps=8.0 q=24.8 size=N/A time=00:00:04.76 bitrate=N/A    frame=  243 fps=8.0 q=24.8 size=N/A time=00:00:04.86 bitrate=N/A    frame=  248 fps=8.0 q=24.8 size=N/A time=00:00:04.96 bitrate=N/A    frame=  253 fps=8.0 q=24.8 size=N/A time=00:00:05.06 bitrate=N/A    frame=  258 fps=8.0 q=24.8 size=N/A time=00:00:05.16 bitrate=N/A    frame=  263 fps=8.0 q=24.8 size=N/A time=00:00:05.26 bitrate=N/A    frame=  268 fps=8.0 q=24.8 size=N/A time=00:00:05.36 bitrate=N/A    frame=  273 fps=8.0 q=24.8 size=N/A time=00:00:05.46 bitrate=N/A    frame=  278 fps=8.0 q=24.8 size=N/A time=00:00:05.56 bitrate=N/A    frame=  283 fps=8.0 q=24.8 size=N/A time=00:00:05.66 bitrate=N/A    frame=  288 fps=8.0 q=24.8 size=N/A time=00:00:05.76 bitrate=N/A    frame=  293 fps=8.0 q=24.8 size=N/A time=00:00:05.86 bitrate=N/A    frame=  298 fps=8.1 q=24.8 size=N/A time=00:00:05.96 bitrate=N/A    frame=  303 fps=8.1 q=24.8 size=N/A time=00:00:06.06 bitrate=N/A    frame=  308 fps=8.1 q=24.8 size=N/A time=00:00:06.16 bitrate=N/A    frame=  313 fps=8.1 q=24.8 size=N/A time=00:00:06.26 bitrate=N/A    frame=  318 fps=8.1 q=24.8 size=N/A time=00:00:06.36 bitrate=N/A    frame=  323 fps=8.1 q=24.8 size=N/A time=00:00:06.46 bitrate=N/A    frame=  328 fps=8.1 q=24.8 size=N/A time=00:00:06.56 bitrate=N/A    frame=  333 fps=8.1 q=24.8 size=N/A time=00:00:06.66 bitrate=N/A    frame=  338 fps=8.1 q=24.8 size=N/A time=00:00:06.76 bitrate=N/A    frame=  343 fps=8.1 q=24.8 size=N/A time=00:00:06.86 bitrate=N/A    frame=  348 fps=8.1 q=24.8 size=N/A time=00:00:06.96 bitrate=N/A    frame=  353 fps=8.1 q=24.8 size=N/A time=00:00:07.06 bitrate=N/A    frame=  358 fps=8.1 q=24.8 size=N/A time=00:00:07.16 bitrate=N/A    frame=  363 fps=8.1 q=24.8 size=N/A time=00:00:07.26 bitrate=N/A    frame=  368 fps=8.1 q=24.8 size=N/A time=00:00:07.36 bitrate=N/A    frame=  373 fps=8.1 q=24.8 size=N/A time=00:00:07.46 bitrate=N/A    frame=  378 fps=8.1 q=24.8 size=N/A time=00:00:07.56 bitrate=N/A    frame=  383 fps=8.1 q=24.8 size=N/A time=00:00:07.66 bitrate=N/A    frame=  388 fps=8.1 q=24.8 size=N/A time=00:00:07.76 bitrate=N/A    frame=  393 fps=8.1 q=24.8 size=N/A time=00:00:07.86 bitrate=N/A    frame=  398 fps=8.1 q=24.8 size=N/A time=00:00:07.96 bitrate=N/A    frame=  403 fps=8.1 q=24.8 size=N/A time=00:00:08.06 bitrate=N/A    frame=  408 fps=8.1 q=24.8 size=N/A time=00:00:08.16 bitrate=N/A    frame=  413 fps=8.1 q=24.8 size=N/A time=00:00:08.26 bitrate=N/A    frame=  418 fps=8.1 q=24.8 size=N/A time=00:00:08.36 bitrate=N/A    frame=  423 fps=8.1 q=24.8 size=N/A time=00:00:08.46 bitrate=N/A    frame=  428 fps=8.1 q=24.8 size=N/A time=00:00:08.56 bitrate=N/A    frame=  433 fps=8.1 q=24.8 size=N/A time=00:00:08.66 bitrate=N/A    frame=  438 fps=8.1 q=24.8 size=N/A time=00:00:08.76 bitrate=N/A    frame=  443 fps=8.1 q=24.8 size=N/A time=00:00:08.86 bitrate=N/A    frame=  448 fps=8.1 q=24.8 size=N/A time=00:00:08.96 bitrate=N/A    frame=  453 fps=8.1 q=24.8 size=N/A time=00:00:09.06 bitrate=N/A    frame=  458 fps=8.1 q=24.8 size=N/A time=00:00:09.16 bitrate=N/A    frame=  463 fps=8.1 q=24.8 size=N/A time=00:00:09.26 bitrate=N/A    frame=  468 fps=8.1 q=24.8 size=N/A time=00:00:09.36 bitrate=N/A    frame=  473 fps=8.1 q=24.8 size=N/A time=00:00:09.46 bitrate=N/A    frame=  478 fps=8.1 q=24.8 size=N/A time=00:00:09.56 bitrate=N/A    frame=  483 fps=8.1 q=24.8 size=N/A time=00:00:09.66 bitrate=N/A    frame=  488 fps=8.1 q=24.8 size=N/A time=00:00:09.76 bitrate=N/A    frame=  493 fps=8.1 q=24.8 size=N/A time=00:00:09.86 bitrate=N/A    frame=  498 fps=8.1 q=24.8 size=N/A time=00:00:09.96 bitrate=N/A    frame=  503 fps=8.1 q=24.8 size=N/A time=00:00:10.06 bitrate=N/A    frame=  508 fps=8.1 q=24.8 size=N/A time=00:00:10.16 bitrate=N/A    frame=  513 fps=8.1 q=24.8 size=N/A time=00:00:10.26 bitrate=N/A    frame=  518 fps=8.1 q=24.8 size=N/A time=00:00:10.36 bitrate=N/A    frame=  523 fps=8.1 q=24.8 size=N/A time=00:00:10.46 bitrate=N/A    frame=  528 fps=8.1 q=24.8 size=N/A time=00:00:10.56 bitrate=N/A    frame=  533 fps=8.1 q=24.8 size=N/A time=00:00:10.66 bitrate=N/A    frame=  538 fps=8.1 q=24.8 size=N/A time=00:00:10.76 bitrate=N/A    frame=  543 fps=8.1 q=24.8 size=N/A time=00:00:10.86 bitrate=N/A    frame=  548 fps=8.1 q=24.8 size=N/A time=00:00:10.96 bitrate=N/A    frame=  553 fps=8.1 q=24.8 size=N/A time=00:00:11.06 bitrate=N/A    frame=  557 fps=8.1 q=24.8 size=N/A time=00:00:11.14 bitrate=N/A    frame=  557 fps=8.1 q=24.8 Lsize=N/A time=00:00:11.14 bitrate=N/A    
video:522870kB audio:0kB subtitle:0kB other streams:0kB global headers:0kB muxing overhead: unknown
+ turkic load DJI_0106_ragas_Vaskut_20180630_napos_napraforgo_T4 /home/horvathandras/vatic/vatic/videos/DJI_0106_ragas_Vaskut_20180630_napos_napraforgo_T4 $'Pozit\303\255vROI' $'Negat\303\255vROI' $'T\303\272r\303\241s' '~Friss' '~1-2Hetes' '~Régebbi' '~Egyéb1' '~Egyéb2' '~Egyéb3' $'R\303\241g\303\241s' '~Friss' '~1-2Hetes' '~Régebbi' '~Egyéb1' '~Egyéb2' '~Egyéb3' $'T\303\266r\303\251s' '~Friss' '~1-2Hetes' '~Régebbi' '~Egyéb1' '~Egyéb2' '~Egyéb3' $'Tapos\303\241s' '~Friss' '~1-2Hetes' '~Régebbi' '~Egyéb1' '~Egyéb2' '~Egyéb3' $'Eg\303\251szs\303\251gesN\303\266v\303\251ny' $'Egy\303\251b1' $'Egy\303\251b2' $'Egy\303\251b3' $'Egy\303\251b4' $'Egy\303\251b5' Bizonytalan $'M\305\261vel\305\221\303\272t' $'Gktapos\303\241s' $'Vet\305\221hiba' $'Sz\303\251ld\303\266nt\303\251s' $'J\303\251gk\303\241r' $'Belv\303\255z' $'Asz\303\241ly' $'Er\303\263zi\303\263' $'Egyszik\305\261Gyom' $'K\303\251tszik\305\261Gyom' $'Egy\303\251bN\303\266vv\303\251delmiPR' --offline --title '$filenameNoDot Video' --length 1000 --description 'vatic annotation'
+ turkic publish --offline
+ mkdir /home/horvathandras/vatic/vatic/public/videothumbnails/DJI_0106_ragas_Vaskut_20180630_napos_napraforgo_T4
+ cp /home/horvathandras/vatic/vatic/videos/DJI_0106_ragas_Vaskut_20180630_napos_napraforgo_T4/0/0/31.jpg /home/horvathandras/vatic/vatic/public/videothumbnails/DJI_0106_ragas_Vaskut_20180630_napos_napraforgo_T4/thumb.jpg
